<svg xmlns="http://www.w3.org/2000/svg" xmlns:xlink="http://www.w3.org/1999/xlink" version="1.1" x="0px" y="0px" viewBox="0 0 100 125" style="enable-background:new 0 0 100 100;" xml:space="preserve"><g><path d="M50,0C22.4,0,0,22.4,0,50c0,27.6,22.4,50,50,50c27.6,0,50-22.4,50-50C100,22.4,77.6,0,50,0z M50,96.3   C24.5,96.3,3.7,75.5,3.7,50S24.5,3.7,50,3.7S96.3,24.5,96.3,50S75.5,96.3,50,96.3z"/><path d="M58,56.2c3-3.4,4.8-7.8,4.8-12.7c0-10.6-8.7-19.3-19.3-19.3c-10.6,0-19.3,8.7-19.3,19.3c0,10.6,8.7,19.3,19.3,19.3   c4.4,0,8.5-1.5,11.8-4l16.8,16c0.4,0.3,0.8,0.5,1.3,0.5c0.5,0,1-0.2,1.3-0.6c0.7-0.7,0.7-1.9-0.1-2.6L58,56.2z M27.9,43.5   c0-8.6,7-15.6,15.6-15.6c8.6,0,15.6,7,15.6,15.6c0,8.6-7,15.6-15.6,15.6C34.9,59.1,27.9,52.1,27.9,43.5z"/></g><text x="0" y="115" fill="#000000" font-size="5px" font-weight="bold" font-family="'Helvetica Neue', Helvetica, Arial-Unicode, Arial, Sans-serif"></text><text x="0" y="120" fill="#000000" font-size="5px" font-weight="bold" font-family="'Helvetica Neue', Helvetica, Arial-Unicode, Arial, Sans-serif"></text></svg>